<svg xmlns="http://www.w3.org/2000/svg" width="481pt" height="291pt" viewBox="0 0 481 291" version="1.1" xmlns:xlink="http://www.w3.org/1999/xlink">
	<g transform="matrix(1,0,0,1,0,0)" id="surface2" data-tpl_matrix="1,0,0,1,0,0">
		<path style="stroke:none;fill-rule:evenodd;fill:rgb(45,62,81);fill-opacity:1" d="M 240.5 200.648438 L 208.898438 169.101562 L 207.5 169.101562 L 240.5 202.101562 L 273.449219 169.101562 L 272.050781 169.101562 L 240.5 200.648438"/>
		<path style="stroke:none;fill-rule:evenodd;fill:rgb(45,62,81);fill-opacity:1" d="M 240.5 58.25 L 272.050781 89.851562 L 273.449219 89.851562 L 240.5 56.851562 L 207.5 89.851562 L 208.898438 89.851562 L 240.5 58.25"/>
		<path style="stroke:none;fill-rule:evenodd;fill:rgb(245,157,32);fill-opacity:1" d="M 240.5 37.148438 L 293.199219 89.851562 L 301.648438 89.851562 L 240.5 28.648438 L 179.300781 89.851562 L 187.800781 89.851562 L 240.5 37.148438"/>
		<path style="stroke:none;fill-rule:evenodd;fill:rgb(40,128,184);fill-opacity:1" d="M 240.5 221.800781 L 187.800781 169.101562 L 179.300781 169.101562 L 240.5 230.300781 L 301.648438 169.101562 L 293.199219 169.101562 L 240.5 221.800781"/>
	
	</g>
	<g id="surface4">
		<text style="fill:rgb(44,62,81)" font-family="Merriweather" font-size="38" transform="matrix(1,0,0,1,158,131.5)" id="0" xml:space="preserve"><![CDATA[ZUTRON]]></text>
		<text style="fill:rgb(244,156,32)" font-family="Merriweather" font-size="17" transform="matrix(1,0,0,1,152.5,161.5)" id="1" xml:space="preserve"><![CDATA[PHARMACEUTICALS]]></text>
	</g>
</svg>
